<?xml version="1.0" standalone="no"?>
<!DOCTYPE svg PUBLIC "-//W3C//DTD SVG 20010904//EN"
 "http://www.w3.org/TR/2001/REC-SVG-20010904/DTD/svg10.dtd">
<svg version="1.0" xmlns="http://www.w3.org/2000/svg"
 width="562.000000pt" height="562.000000pt" viewBox="0 0 562.000000 562.000000"
 preserveAspectRatio="xMidYMid meet">
<metadata>
Created by potrace 1.14, written by Peter Selinger 2001-2017
</metadata>
<g transform="translate(0.000000,562.000000) scale(0.100000,-0.100000)"
fill="#000000" stroke="none">
<path d="M2395 5491 c-126 -77 -322 -409 -454 -769 -57 -157 -75 -248 -67
-346 22 -292 219 -752 425 -996 l46 -55 -42 33 c-102 80 -291 299 -367 426
l-36 60 0 -70 c0 -97 17 -268 40 -404 81 -470 272 -856 568 -1142 44 -43 78
-78 75 -78 -2 0 -59 37 -126 82 -141 94 -257 183 -340 260 -31 30 -57 49 -57
43 0 -5 17 -50 38 -100 82 -196 194 -369 320 -492 l67 -65 -55 7 c-30 4 -90
17 -132 30 -43 12 -78 19 -78 15 0 -32 134 -192 205 -244 11 -9 17 -16 14 -16
-9 0 -131 50 -181 76 -26 13 -50 24 -53 24 -11 0 39 -64 99 -128 79 -82 150
-136 248 -187 l81 -42 -69 -8 c-89 -9 -178 -38 -232 -73 l-43 -29 143 0 c79 0
154 -5 168 -11 24 -10 23 -11 -30 -35 -30 -13 -71 -28 -90 -33 l-35 -8 50 -7
c62 -8 203 5 270 25 27 9 51 13 53 11 7 -7 -45 -82 -90 -131 -22 -24 -38 -44
-35 -44 23 0 105 47 143 82 l47 43 -7 -143 c-8 -178 -29 -344 -62 -487 -14
-60 -30 -135 -35 -165 -15 -77 -7 -186 18 -234 l20 -40 16 55 c70 242 133 641
169 1064 17 199 17 925 0 1160 -42 586 -121 1297 -217 1950 -19 132 -33 240
-31 242 1 2 19 -50 39 -114 106 -340 194 -781 252 -1253 60 -493 79 -888 73
-1502 l-5 -468 34 0 c58 0 184 -30 236 -56 l49 -25 -19 31 c-10 18 -36 52 -58
76 -29 31 -37 45 -27 49 19 7 223 -12 273 -25 53 -15 58 -8 17 23 -48 36 -122
58 -215 64 -46 3 -83 9 -82 12 0 3 38 32 83 64 78 54 251 205 244 213 -2 2
-35 -8 -73 -22 -38 -14 -95 -31 -127 -39 l-57 -13 80 92 c202 231 304 446 315
661 l6 100 -22 -35 c-68 -107 -135 -203 -172 -245 -41 -46 -113 -105 -129
-105 -4 0 19 55 51 123 111 232 130 322 130 622 0 363 -65 972 -130 1224 -101
386 -376 855 -704 1199 -151 157 -296 262 -363 262 -15 0 -41 -8 -58 -19z"/>
</g>
</svg>
